<?xml version="1.0" encoding="utf-8"?>
<!-- Generator: Adobe Illustrator 18.1.0, SVG Export Plug-In . SVG Version: 6.00 Build 0)  -->
<svg version="1.1" xmlns="http://www.w3.org/2000/svg" xmlns:xlink="http://www.w3.org/1999/xlink" x="0px" y="0px"
	 viewBox="0 0 2114.5 1752" enable-background="new 0 0 2114.5 1752" xml:space="preserve">
<g id="extentBox">
	<rect x="0" opacity="0.51" fill="none" width="2114.5" height="1752"/>
</g>
<g id="nameBoxes">
	<rect x="210.5" y="883" opacity="0.39" fill="#F0E91D" width="166" height="58"/>
	
		<rect x="758.8" y="992.4" transform="matrix(0.8793 -0.4762 0.4762 0.8793 -377.1139 554.7231)" opacity="0.39" fill="#F0E91D" width="294.3" height="58"/>
	
		<rect x="756.6" y="878.6" transform="matrix(0.8793 -0.4762 0.4762 0.8793 -331.1507 508.3588)" opacity="0.39" fill="#F0E91D" width="161.7" height="58"/>
	
		<rect id="easBlaWay" x="805.3" y="711.7" transform="matrix(0.9053 -0.4248 0.4248 0.9053 -227.3748 461.4927)" opacity="0.39" fill="#F0E91D" width="232" height="58"/>
	
		<rect x="751.1" y="543.5" transform="matrix(0.9998 1.842145e-02 -1.842145e-02 0.9998 10.6886 -15.289)" opacity="0.39" fill="#F0E91D" width="168.3" height="58"/>
	
		<rect x="851.1" y="451.2" transform="matrix(0.9998 1.842145e-02 -1.842145e-02 0.9998 9.0059 -17.3232)" opacity="0.39" fill="#F0E91D" width="187.5" height="58"/>
	
		<rect x="944.8" y="363.4" transform="matrix(0.9998 1.842145e-02 -1.842145e-02 0.9998 7.4072 -19.3005)" opacity="0.39" fill="#F0E91D" width="213" height="58"/>
	
		<rect x="471.5" y="655" transform="matrix(0.3761 -0.9266 0.9266 0.3761 -285.8471 943.4706)" opacity="0.39" fill="#F0E91D" width="172.3" height="58"/>
	
		<rect x="530.8" y="731" transform="matrix(0.3079 -0.9514 0.9514 0.3079 -296.074 1113.0054)" opacity="0.39" fill="#F0E91D" width="172.3" height="58"/>
	
		<rect x="490.9" y="1187" transform="matrix(-0.1295 -0.9916 0.9916 -0.1295 -554.0017 1945.5769)" opacity="0.39" fill="#F0E91D" width="172.3" height="58"/>
	
		<rect x="221.9" y="1468.7" transform="matrix(-1.050052e-02 -0.9999 0.9999 -1.050052e-02 -1081.8362 1924.786)" opacity="0.39" fill="#F0E91D" width="379" height="58"/>
	
		<rect x="1616.9" y="380.9" transform="matrix(-0.9995 -3.242607e-02 3.242607e-02 -0.9995 3598.6018 878.1969)" opacity="0.39" fill="#F0E91D" width="379" height="58"/>
	
		<rect x="1173.9" y="1191.8" transform="matrix(-0.9995 -3.242607e-02 3.242607e-02 -0.9995 2983.2651 2558.1909)" opacity="0.39" fill="#F0E91D" width="677" height="126.2"/>
	<polygon opacity="0.39" fill="#F0E91D" points="712.4,612.7 938.6,621.6 923.8,684 636.4,824.7 	"/>
</g>
</svg>
